<svg width="220" height="151" viewBox="0 0 220 151" fill="none" xmlns="http://www.w3.org/2000/svg">
<path fill-rule="evenodd" clip-rule="evenodd" d="M45.7838 88.3964C28.3423 83.8378 13.6757 75.9099 2.57661 65.009C2.18021 64.7448 1.91595 64.3484 1.78381 63.8198C1.78381 63.2252 1.98201 62.6306 2.37841 62.2342C3.1712 61.4414 4.55858 61.2432 5.35138 62.036C16.4505 72.9369 31.1171 80.4685 48.5585 84.8288C56.6846 85.4234 65.6035 82.2523 73.5315 75.7117C74.9188 70.955 75.3152 65.8018 74.9188 60.6487C72.5405 61.8378 69.5675 62.4324 68.3783 62.6306C63.2252 63.6216 58.072 62.6306 54.1081 60.0541C53.5135 59.6577 52.7207 59.0631 52.3243 58.2703C52.06 57.8739 51.8618 57.3454 51.7297 56.6847C51.7297 55.6937 51.9279 54.5045 52.7207 53.5135C54.7027 50.5405 58.072 49.1532 63.2252 48.955C65.4053 48.955 68.7747 48.955 71.7477 49.946C72.2762 50.0781 72.7387 50.2763 73.1351 50.5405C72.8708 49.0871 72.5405 47.6997 72.1441 46.3784C67.1891 48.7568 60.054 45.3874 54.7027 42.018C51.1351 39.6396 46.5765 35.6757 45.1892 30.1261C45.1892 29.5976 45.1231 29.0691 44.991 28.5405C44.5946 23.7838 46.9729 18.2342 52.1261 16.2523C55.6936 14.8649 60.054 15.4595 63.8198 17.8378C66.3963 19.6216 68.5765 22.1982 70.7567 26.1622L70.9549 26.3604C72.9369 30.1261 77.2972 37.8559 75.5134 42.8108C77.8918 51.5315 80.072 61.4415 78.8828 70.7568C83.2432 66.1982 87.2071 60.8469 91.1711 55.6937C92.7567 53.5796 94.4083 51.4655 96.126 49.3514C94.9368 48.5586 94.144 47.3694 93.5495 46.1802C91.9639 43.4054 90.9729 40.2342 90.5765 36.0721C90.4444 35.6757 90.3783 35.2793 90.3783 34.8829C89.9819 28.1441 90.9729 21.2072 93.3512 14.6667C95.3332 9.11712 98.108 5.15315 101.676 2.77477C106.432 -0.594599 112.576 -0.792797 116.739 2.37838C119.91 4.75675 121.694 8.72072 121.495 13.4775C121.495 17.4414 119.91 21.2072 118.522 24.3784C115.748 30.5886 112.246 36.4024 108.018 41.8198C110 40.8288 111.585 40.2342 112.576 39.8378C118.721 37.6577 125.063 37.6577 130.018 40.036C130.811 40.4324 131.802 40.8288 132.396 41.8198C133.585 43.8018 132.793 46.3784 130.414 48.3604C126.649 51.9279 122.09 54.5045 117.333 56.2883C113.369 57.6757 109.802 58.0721 106.829 57.4775C104.45 57.0811 102.468 56.2883 100.883 54.9009C100.09 54.3063 99.2972 53.7117 98.7026 52.7207C97.2491 54.5706 95.8618 56.4204 94.5404 58.2703C94.0119 58.7988 93.5494 59.3273 93.1531 59.8559C94.7386 60.0541 96.126 60.4505 97.117 60.8469L97.5134 61.0451C103.261 63.027 107.82 66.991 110.793 69.7658C112.378 71.3514 112.973 72.9369 112.576 74.5225C112.18 75.3153 111.585 76.1081 110.793 76.5045C108.216 78.0901 105.045 76.7027 103.856 75.9099C100.685 74.3243 97.7116 72.937 94.9368 70.7568C92.1621 68.5766 90.1801 66.7928 89.3873 65.009C86.0179 69.1712 82.6486 73.1351 78.6846 76.7027C73.1351 81.6577 67.1891 85.2252 61.2432 87.2072C70.096 88.5285 79.3453 89.0571 88.9909 88.7928C108.216 88 127.441 84.6306 145.874 81.4595C155.189 79.8739 164.703 78.0901 174.216 76.9009C173.423 75.8439 172.895 74.5886 172.63 73.1351C172.498 72.6066 172.432 72.0781 172.432 71.5496C172.036 68.3784 173.027 65.2072 174.018 62.8288C176.793 56.2883 180.757 50.5405 185.91 45.7838C189.279 42.4144 192.45 40.6306 195.82 39.6396C199.189 38.8469 202.36 39.4414 204.738 41.027C207.117 43.009 208.306 46.1802 207.91 49.5496C207.711 52.7207 206.324 55.2973 205.135 57.2793C201.766 62.6306 197.405 67.7838 191.657 72.5406C190.468 73.3333 189.081 74.3243 187.693 75.1171C187.165 75.5135 186.636 75.8439 186.108 76.1081C190.865 75.9099 196.216 76.9009 200.576 78.8829C207.513 81.8559 213.459 87.009 217.225 93.7478C218.018 95.3333 218.811 97.1171 218.811 99.0991C218.612 101.676 216.829 104.054 214.054 104.252C213.657 104.252 213.261 104.252 212.865 104.252C212.732 104.252 212.6 104.252 212.468 104.252C212.666 104.252 212.468 104.45 212.468 104.649C212.336 104.913 212.27 105.111 212.27 105.243C211.081 107.622 208.702 109.207 205.729 109.207C203.549 109.405 201.369 108.613 199.387 107.82C190.27 104.252 173.621 93.946 176.198 81.0631C176.33 80.9309 176.396 80.7988 176.396 80.6667C166.486 82.0541 156.378 83.8378 146.666 85.4234C138.937 86.8108 131.009 88.1982 123.081 89.3874C129.621 92.3604 135.567 96.3243 141.117 101.081C146.865 106.234 152.018 112.18 155.982 118.721C161.135 116.937 168.27 118.523 171.639 119.712C178.18 121.892 183.333 127.045 184.919 132.991C185.315 134.18 185.711 135.964 184.919 137.748C184.126 139.532 182.342 140.523 181.153 141.117C173.82 144.288 165.099 143.297 158.757 138.541C155.784 136.36 153.603 133.586 152.414 130.613C152.018 129.291 151.754 128.036 151.621 126.847C151.423 124.865 151.82 122.883 152.811 121.297C149.639 116.144 145.874 111.387 141.513 107.027C141.315 109.604 141.315 112.378 141.117 114.955C141.117 118.919 140.919 123.279 140.324 127.243C140.324 127.64 140.192 127.97 139.928 128.234C141.117 130.018 141.513 132.991 141.91 135.766L139.73 136.162L141.91 135.964C141.91 137.153 142.108 138.739 141.712 140.324C141.117 143.099 139.333 145.478 137.748 147.261C137.351 147.658 136.757 148.45 135.766 148.847C133.784 149.64 131.603 148.45 130.811 146.667C130.414 145.874 130.216 145.081 130.216 144.487C130.084 143.826 130.018 143.231 130.018 142.703L130.216 141.315C130.216 137.153 130.414 131.009 133.585 128.036C134.576 127.243 135.567 126.847 136.36 126.649C136.624 124.667 136.757 122.619 136.757 120.505C134.576 122.685 131.207 124.072 129.423 124.667C127.045 125.459 124.667 125.658 122.685 125.658C120.901 125.856 118.721 126.054 116.739 125.261C115.351 124.865 114.558 123.874 114.558 122.883C114.426 122.487 114.426 122.156 114.558 121.892C114.757 121.099 115.351 120.703 115.549 120.505C115.682 120.505 115.748 120.505 115.748 120.505C120.703 116.541 127.045 114.955 132.396 113.964C133.982 113.766 135.766 113.568 137.153 113.964C137.153 110.396 137.351 107.027 137.748 103.658C131.009 97.9099 123.279 93.3514 114.955 90.5766C106.432 91.7658 97.9098 92.5586 89.1891 92.7568C74.3242 93.3514 60.4504 91.964 47.9639 88.7928C47.5675 88.7928 47.1051 88.7928 46.5765 88.7928C46.3123 88.6607 46.048 88.5285 45.7838 88.3964ZM133.387 118.126C133.255 118.126 133.123 118.126 132.991 118.126C129.225 118.721 125.063 119.712 121.297 121.694C121.694 121.694 122.024 121.694 122.288 121.694C124.27 121.496 126.252 121.297 128.036 120.703C129.82 120.306 132 119.117 133.387 118.126ZM178.18 137.748C174.745 136.955 171.375 135.832 168.072 134.378C162.654 132 158.492 129.093 155.585 125.658C155.585 127.243 156.378 129.027 156.378 129.027C157.369 132 159.549 133.982 161.135 135.171C165.892 138.739 172.432 139.73 178.18 137.748ZM157.171 122.685C156.576 123.081 156.18 123.478 155.982 124.27C158.624 127.97 162.787 131.009 168.468 133.387C172.168 134.973 176 136.162 179.964 136.955C180.36 136.757 180.955 136.36 181.153 135.964C181.285 135.832 181.351 135.568 181.351 135.171C181.219 134.907 181.087 134.577 180.955 134.18C179.766 129.423 175.603 125.459 170.45 123.676C170.45 123.544 170.45 123.477 170.45 123.477C166.288 122.09 160.54 121.496 157.171 122.685ZM137.748 136.36V136.162C137.748 136.03 137.748 135.964 137.748 135.964C137.351 132.595 136.955 131.405 136.757 130.811C136.624 130.943 136.492 131.075 136.36 131.207C134.378 132.793 134.378 138.342 134.18 141.315V142.703C134.18 143.694 134.18 144.288 134.378 144.685C134.378 144.883 134.576 144.685 134.576 144.685C135.964 143.099 137.351 141.315 137.748 139.532C137.946 138.541 137.946 137.351 137.748 136.36ZM208.504 103.063C208.636 102.931 208.769 102.733 208.901 102.468C206.324 100.487 203.153 99.0991 200.18 97.9099C197.207 96.5225 194.036 95.1351 191.261 93.1532C188.684 91.3694 186.504 89.1892 184.324 87.009C182.937 85.4234 181.549 84.036 180.36 82.4505C178.775 91.5676 192.054 100.487 200.973 104.054C202.36 104.649 203.946 105.243 205.531 105.243C206.919 105.045 208.108 104.45 208.504 103.658V103.063ZM185.117 80.2703C184.126 80.2703 182.54 80.4685 180.955 80.2703C180.69 80.5345 180.492 80.7988 180.36 81.0631C181.748 82.8469 183.333 84.4324 184.919 86.018C186.901 88.1982 189.081 90.5766 191.657 92.1622C194.234 94.1442 197.405 95.5315 200.378 96.7207C203.351 98.1081 206.522 99.4955 209.297 101.477C209.561 101.081 209.958 100.685 210.486 100.288C211.477 99.8919 212.468 99.8919 213.063 100.09C213.327 100.09 213.525 100.09 213.657 100.09C214.054 100.09 214.45 99.4955 214.45 98.7027C214.45 97.7117 214.054 96.5225 213.459 95.5315C210.09 89.7838 204.937 85.027 198.793 82.4505C194.63 80.6667 189.675 79.8739 185.117 80.2703ZM176.396 71.946C176.793 73.9279 177.784 75.1171 179.369 75.7117C181.153 74.1261 183.333 72.7387 185.315 71.5496C186.702 70.5586 187.892 69.7658 188.883 69.1712C194.234 64.8108 198.396 60.0541 201.369 55.0991C202.36 53.5135 203.351 51.3333 203.747 48.955C203.747 48.5586 203.747 48.1622 203.747 47.7658C203.549 46.1802 202.955 44.991 201.964 44.1982C200.775 43.2072 198.793 43.009 196.612 43.6036C194.036 44.1982 191.459 45.7838 188.486 48.5586C183.928 52.9189 180.162 58.2703 177.784 64.2162C176.793 66.3964 175.802 69.3694 176.396 71.946ZM93.3512 64.018C93.9458 64.4144 94.9368 65.6036 97.117 67.1892C99.6936 69.1712 102.667 70.7568 105.441 72.1442C106.036 72.3424 107.225 72.9369 108.018 72.9369C108.018 72.8048 107.952 72.7387 107.82 72.7387C105.045 70.1622 100.883 66.5946 96.126 64.8108L95.5314 64.6126C94.6065 64.3484 93.8798 64.1502 93.3512 64.018ZM98.108 44.991C101.081 35.2793 105.441 23.7838 109.802 13.0811C110.396 12.0901 111.784 8.72072 113.964 6.54054C111.387 6.34234 109.009 8.12612 108.018 8.91892C103.063 13.2793 101.081 20.2162 99.4954 27.7477C98.5044 32.9009 97.117 39.0451 98.108 44.991ZM102.468 50.3423C102.336 50.4745 102.27 50.6066 102.27 50.7387C102.402 50.8709 102.733 51.1351 103.261 51.5315C104.45 52.5225 105.838 53.1171 107.225 53.3153C109.603 53.7117 112.378 53.3153 115.748 52.1261C120.108 50.7387 124.072 48.3604 127.639 45.1892C128.234 44.5946 128.63 44 128.63 43.8018C128.63 43.8018 128.498 43.7357 128.234 43.6036C124.072 41.8198 118.919 41.8198 113.964 43.6036C111.982 44.3964 105.243 46.973 102.468 50.3423ZM115.351 6.73874C113.369 8.32432 111.784 11.2973 110.793 13.4775C106.234 24.3784 102.072 35.8739 98.9008 45.7838C99.6936 45.1892 100.883 43.8018 101.477 43.2072C106.829 36.8649 111.189 29.9279 114.558 22.3964C115.946 19.4234 117.135 16.4505 117.135 13.0811C117.267 12.6847 117.267 12.2222 117.135 11.6937C116.937 9.71171 116.342 7.92793 115.351 6.73874ZM96.9188 43.8018C96.9188 43.9339 96.9188 44 96.9188 44C96.9188 43.8679 96.9188 43.7357 96.9188 43.6036C96.3242 38.0541 97.5134 32.3063 98.5044 27.5496C100.288 19.8198 102.072 12.6847 107.423 8.12612C109.603 6.34234 111.982 5.35135 114.162 5.54955C110.991 3.17117 106.631 3.96396 103.856 5.94594C101.081 7.92793 98.9008 11.2973 97.117 16.0541C94.9368 21.8018 93.9458 28.3423 94.3422 34.4865C94.6065 38.3183 95.4654 41.4234 96.9188 43.8018ZM73.7297 55.8919C73.7297 55.8919 73.5315 55.6937 72.9369 55.0991C72.4083 54.5706 71.5495 54.1081 70.3603 53.7117C68.3783 53.1171 66.1981 52.9189 63.2252 53.1171C59.4594 53.1171 57.081 53.9099 55.8918 55.6937C55.7597 55.8258 55.6936 55.958 55.6936 56.0901C55.6936 56.0901 55.8258 56.1562 56.09 56.2883C59.2612 58.4685 63.4234 59.2613 67.3873 58.4685C70.9549 57.8739 73.5315 56.6847 73.7297 55.8919ZM53.3153 19.8198C52.6546 20.2162 52.06 20.6787 51.5315 21.2072C51.1351 23.1892 51.5315 25.5676 52.5225 27.7477C53.9099 31.1171 56.4864 33.6937 58.8648 36.0721C60.6486 37.6577 62.6306 39.4414 65.2071 40.8288C66.3963 41.4234 68.3783 42.2162 70.5585 42.2162C70.6906 42.2162 70.7567 42.2162 70.7567 42.2162C71.3513 41.8198 71.7477 41.027 71.7477 39.2432C71.5495 37.2613 70.3603 33.8919 67.1891 28.3423L66.9909 27.9459C65.2071 24.7748 63.4234 22.5946 61.2432 21.2072C58.8648 19.4234 55.6936 19.027 53.3153 19.8198ZM56.6846 38.2523C61.045 41.2252 65.0089 42.8108 67.7837 42.8108C66.5945 42.6126 65.4053 42.018 64.6126 41.6216C62.036 40.4324 59.8558 38.4505 58.072 36.6667C55.6936 34.4865 53.1171 31.5135 51.5315 28.1441C50.8708 26.6907 50.4744 25.2372 50.3423 23.7838C50.3423 23.2553 50.3423 22.7928 50.3423 22.3964C48.9549 24.3784 48.5585 26.955 49.1531 28.9369C50.1441 33.2973 53.7117 36.4685 56.6846 38.2523Z" fill="#BC4E81"/>
</svg>
