<svg width="329" height="346" viewBox="0 0 329 346" fill="none" xmlns="http://www.w3.org/2000/svg">
<g clip-path="url(#clip0_4_165)">
<path d="M135.629 78.2891C134.49 77.5901 133.106 77.8426 132.241 78.8375C131.686 79.8107 131.773 81.0505 132.602 81.7712C132.811 82.5353 133.294 84.9933 133.525 86.0673C133.612 87.3071 133.987 88.2153 134.03 88.8352C134.949 91.5743 136.026 94.3541 137.261 97.1748C139.821 102.602 142.669 107.698 146.26 112.275C146.606 112.77 146.952 113.265 147.298 113.76C149.374 116.729 152.157 120.895 155.92 121.255C159.229 121.802 161.146 120.267 162.155 119.106C164.151 116.475 163.682 111.991 162.68 108.791C159.889 102.289 157.033 94.8578 151.518 89.4812C151.172 88.9863 150.723 88.4986 150.17 88.0181C147.517 85.7119 144.431 83.903 141.346 82.0942C139.399 80.9844 137.431 79.5647 135.629 78.2891Z" fill="#E46F62"/>
<path d="M69.1696 87.7645C70.7053 89.6817 85.0522 103.318 92.1162 101.889C93.9543 101.449 95.4174 100.101 96.0514 98.0322C96.8653 94.0819 92.1574 89.1161 87.6587 84.9143L86.9954 84.3377C86.0966 83.3623 85.0945 82.3941 83.9891 81.4332C81.0044 78.8386 77.8755 76.4099 74.7684 74.2911C70.4788 70.8534 67.6318 72.4541 66.7669 73.449C65.7915 74.3478 65.2103 75.6862 65.0231 77.4643C65.0957 80.7297 66.4299 84.2184 69.1696 87.7645Z" fill="#E46F62"/>
<path fill-rule="evenodd" clip-rule="evenodd" d="M88.6735 72.6962C88.9976 70.649 89.9632 68.8684 91.4697 68.1401C94.1726 66.7052 96.9264 68.2257 98.0654 68.9247C101.958 71.1443 107.134 73.8971 110.991 77.8322C111.338 78.3271 111.676 78.7187 112.008 79.007C112.113 77.5461 112.274 76.1332 112.49 74.7684C113.672 69.3908 116.021 67.3576 118.148 66.586C119.152 66.1005 120.137 66.0835 121.103 66.5351C121.627 66.6023 121.951 66.7872 122.076 67.09C122.574 67.5224 122.905 67.8107 123.071 67.9548C126.871 73.2956 127.268 81.2103 124.083 86.8838C122.685 89.1619 121.037 90.8345 119.139 91.9017C119.904 93.9247 120.62 96.003 121.288 98.1365C122.067 100.366 122.791 102.548 123.459 104.681C123.569 104.777 123.632 104.929 123.646 105.136C138.006 110.049 150.457 118.834 159.245 126.474C161.013 128.011 162.624 129.508 164.075 130.964C168.905 135.454 173.137 140.297 177.535 145.285C175.429 132.973 176.234 119.991 179.605 108.075C179.702 107.964 179.798 107.854 179.894 107.743C177.14 106.223 174.487 103.916 172.266 101.113C169.195 97.2783 167.032 93.069 165.51 89.1262C163.491 84.7511 161.926 80.1884 162.199 75.1858C162.782 70.1614 165.434 65.7711 169.5 63.7737C169.478 63.4638 169.788 63.4421 170.098 63.4204C170.497 63.1849 170.903 63.0527 171.316 63.0238C175.446 61.9563 180.37 63.3251 183.895 66.972C186.26 69.6099 188.07 73.2209 189.036 78.1369C190.169 83.197 190.372 88.3221 189.789 93.3465C191.907 90.2393 194.026 87.1322 196.952 84.4358C199.569 81.7611 204.023 78.6463 209.58 77.9462C212.68 77.7295 216.32 78.5651 218.642 80.583C219.802 81.592 220.675 82.9326 221.093 84.4607C221.622 86.085 221.641 87.8486 221.152 89.7517C219.927 94.5094 216.424 97.8691 214.096 100.212C209.253 104.444 201.685 109.801 192.264 110.927L191.644 110.971C189.474 111.122 186.23 111.505 183.787 109.963C179.903 123.472 179.848 138.271 183.757 151.858C183.661 151.968 183.668 152.072 183.779 152.168C193.779 163.772 206.201 176.608 227.122 190.718C226.223 189.743 225.379 188.816 224.591 187.936C221.044 183.98 218.592 180.102 216.927 176.325C213.451 168.937 212.578 160.9 211.726 153.172C211.235 148.379 210.556 143.131 209.446 138.381C209.215 137.307 209.77 136.334 210.512 135.815C211.42 135.44 212.516 135.519 213.345 136.24C217.202 140.175 221.967 143.735 226.257 147.173C229.386 149.601 232.515 152.03 235.499 154.625C240.64 159.093 245.347 164.059 248.88 170.041C251.125 173.933 252.772 178.179 253.82 182.778C254.426 184.76 254.931 187.528 254.65 190.195C254.348 192.552 253.297 199.79 249.772 202.839C254.189 205.126 258.916 207.391 263.952 209.634C265.834 209.814 267.427 210.326 269.063 211.457C269.174 211.553 269.34 211.698 269.561 211.89C287.813 219.023 308.394 223.813 328.656 219.593C329.42 219.384 330.228 219.795 330.725 220.227C331.057 220.516 331.292 220.914 331.432 221.424C331.684 222.808 330.819 223.803 329.601 224.199C310.103 228.21 290.683 224.429 273.115 218.182C273.664 221.57 273.203 226.119 271.214 231.085C267.669 240.522 262.135 248.228 254.898 253.874C246.941 260.348 237.218 263.831 227.948 267.127C227.184 267.336 226.398 267.235 225.901 266.803C225.259 266.536 224.884 265.628 224.841 265.008C225.091 252.999 226.523 235.612 237.002 222.888C240.296 218.764 244.873 215.174 249.68 212.657C251.331 211.763 253.003 211.179 254.819 210.429C251.7 208.882 248.636 207.383 245.628 205.932C241.005 203.66 236.422 201.229 231.88 198.64C231.784 198.75 231.688 198.861 231.592 198.971C223.613 205.136 216.464 212.021 209.999 219.793C214.477 230.381 214.27 243.01 209.219 253.175C206.946 257.798 204.109 260.28 200.707 260.622C197.463 261.005 193.902 259.073 191.969 255.938C190.556 253.545 190.051 250.777 190.123 247.346C190.432 240.628 192.809 234.544 196.161 229.014C193.945 230 191.668 230.834 189.327 231.517C183.071 233.356 177.902 232.938 174.132 230.243C172.495 229.112 171.457 227.627 170.873 225.955C170.101 223.828 170.238 221.327 171.326 219.071C173.07 215.055 177.214 211.962 182.274 210.83C186.57 209.906 190.787 210.079 195.026 210.561C199.574 211.022 204.62 211.915 207.814 215.273C213.724 208.475 220.441 202.087 227.512 196.298C216.684 190.67 205.69 184.897 194.307 180.243C194.432 180.545 194.502 180.8 194.517 181.007C195.144 183.299 193.768 185.887 192.269 188.951C191.995 189.489 191.769 189.972 191.592 190.4C190.114 193.773 188.471 197.003 185.358 199.245C182.676 200.99 179.764 201.661 176.996 202.166C176.232 202.375 175.591 202.109 175.093 201.676C174.596 201.244 174.243 200.646 174.343 199.86L174.141 194.735C174.177 193.019 174.191 190.994 174.825 188.925C175.521 187.007 176.741 185.157 178.486 183.374C178.63 183.208 183.163 178.997 187.582 177.598C181.187 175.242 174.361 173.383 167.722 171.979C165.833 171.696 163.944 171.412 162.056 171.129C162.07 171.336 162.029 171.494 161.933 171.605C156.6 177.74 150.769 183.443 144.585 188.547C146.265 190.299 147.369 192.713 147.564 195.503C147.802 198.913 146.945 202.243 145.878 204.809C143.933 210.396 141.735 214.599 138.852 217.915C135.249 222.061 130.629 225.031 125.878 226.142C124.804 226.373 123.111 226.647 121.64 225.66C120.335 224.817 118.965 223.044 119.779 219.093C121.097 211.214 123.165 205.152 125.918 199.976C127.316 197.698 129.002 195.088 131.33 192.745C123.899 195.601 113.706 194.6 113.54 194.456C110.563 194.197 108.595 192.777 108.277 190.463C108.046 189.389 108.457 188.582 108.724 187.94C110.035 184.423 113.437 181.849 118.475 180.406C119.549 180.175 132.315 177.881 136.792 181.773C137.124 182.061 137.455 182.349 137.787 182.638C138.162 183.546 138.89 185.052 137.802 187.309C138.696 186.727 139.693 186.138 140.793 185.542C140.904 185.638 140.959 185.686 140.959 185.686C146.711 181.079 151.965 176.04 156.722 170.568C138.693 168.87 120.139 170.79 103.012 173.078C103.469 173.669 103.822 174.267 104.072 174.872C105.284 178.837 101.313 184.41 97.4428 189.197L96.8662 189.86C92.0088 196.117 86.0914 200.58 80.1665 202.708C77.896 203.645 75.748 204.107 73.6 204.569C72.1679 204.876 70.7912 205.232 69.4697 205.636C68.7057 205.845 67.7541 205.6 67.0909 205.024C66.5717 204.281 66.3626 203.517 66.6075 202.566C69.6193 194.413 73.5751 184.169 81.8638 177.983C83.2044 177.11 85.2874 175.719 87.5362 174.471C82.8507 174.28 78.4991 172.923 74.4812 170.401C69.7593 167.46 65.7363 163.381 61.5617 157.132C59.8169 154.451 59.9534 151.95 61.8923 150.724C62.7788 150.039 63.7087 149.974 64.1628 149.786C71.1476 149.454 78.6592 152.199 86.8849 158.476C87.4376 158.957 88.1009 159.533 88.8747 160.206C89.8696 161.071 90.8164 161.991 91.7152 162.966C94.1233 166.224 94.895 168.35 95.2916 169.568C102.997 168.407 111.179 167.367 119.526 166.472C116.837 165.882 114.184 163.575 111.509 160.959L111.012 160.527C106.679 156.469 102.901 151.438 100.651 145.989C97.9036 140.107 97.5352 134.838 99.0915 130.369C99.1923 129.583 99.9346 129.064 100.699 128.855C101.463 128.646 102.104 128.912 102.602 129.345C102.712 129.441 102.823 129.537 102.933 129.633C105.32 132.581 108.305 135.175 111.289 137.77C113.257 139.19 115.081 140.775 116.761 142.526C121.094 146.584 126.076 153.244 125.522 160.914C125.297 163.629 124.331 165.409 122.625 166.255C137.791 164.883 153.354 164.73 168.658 167.553C181.295 170.095 193.442 174.541 205.199 180.104C192.785 169.603 184.321 159.917 176.541 151.116C171.459 145.242 166.542 139.513 160.882 134.302C159.541 132.942 157.986 131.493 156.218 129.956C156.343 130.259 156.412 130.513 156.427 130.72C158.763 137.409 144.232 143.409 143.922 143.43C140.744 144.743 137.522 145.435 134.3 146.128C131.698 146.777 129.24 147.26 127.113 148.032C126.039 148.263 125.088 148.018 124.403 147.131C123.884 146.389 123.819 145.459 124.373 144.486C127.912 139.411 132.56 132.389 140.013 129.843C140.013 129.843 150.213 126.482 154.394 128.37C141.15 117.149 120.15 104.134 97.4009 106.192C97.2232 106.62 96.9974 107.103 96.7235 107.641C95.6138 109.588 94.5257 111.844 93.6034 114.244C93.1135 116.148 92.3137 118.072 91.348 119.853C86.6856 128.9 77.4238 134.531 68.4925 133.754C67.3968 133.675 66.3011 133.596 65.3062 132.731C64.4772 132.011 63.1073 130.238 63.9646 126.907C65.5349 120.412 69.7942 114.508 75.7115 110.045C78.9693 107.637 82.6693 105.613 86.8115 103.974C89.5577 103.159 91.6841 102.387 93.2339 102.279C93.426 102.058 93.6255 101.94 93.8321 101.925C102.158 100.72 110.469 101.541 118.225 103.334C117.725 102.123 117.274 100.857 116.87 99.5357C116.201 97.4021 115.485 95.3238 114.721 93.3008C106.972 93.8426 98.5801 87.4213 95.098 84.3944C92.1133 81.7998 88.2563 77.8647 88.6735 72.6962ZM133.044 186.084C133.765 185.255 133.743 184.945 133.743 184.945C132.871 183.604 122.621 184.01 119.709 184.681C117.272 185.474 113.95 186.952 113.049 189.663C112.739 189.684 113.215 189.807 114.001 189.908C120.121 190.57 130.039 189.876 133.044 186.084ZM124.039 219.886C124.068 220.299 124.042 220.664 123.96 220.981C130.843 214.738 136.212 206.887 139.347 198.258C140.495 195.374 140.845 192.962 140.398 191.021C136.376 193.638 132.751 197.473 130.12 202.174C127.49 206.874 125.545 212.461 124.039 219.886ZM142.914 195.828C142.828 194.588 142.431 193.37 141.746 192.484C141.765 194.247 141.338 196.302 140.464 198.647C137.185 207.442 131.982 215.437 125.099 221.68C128.775 220.8 132.343 218.37 135.37 214.888C137.82 212.069 139.73 208.198 141.575 203.397C142.353 201.162 143.253 198.452 142.914 195.828ZM175.126 224.411C175.361 224.81 175.597 225.209 175.832 225.608C185.232 224.172 194.566 221.806 203.382 218.698C203.684 218.573 203.932 218.4 204.124 218.179C201.803 216.161 198.018 215.491 194.565 215.11C190.802 214.75 186.895 214.556 183.363 215.27C179.687 216.15 176.718 218.226 175.507 220.959C174.974 222.242 174.751 223.503 175.126 224.411ZM201.032 220.731C193.118 223.361 185.105 225.323 176.993 226.617C180.1 228.736 184.728 228.101 188.094 227.242C192.823 225.821 197.032 223.658 201.032 220.731ZM197.03 254.806C197.251 254.998 197.416 255.142 197.527 255.238C198.304 246.307 199.182 236.59 202.46 227.795C198.201 233.699 194.915 240.159 194.65 247.497C194.616 249.991 195.071 252.036 196.013 253.631C196.359 254.126 196.698 254.517 197.03 254.806ZM206.475 222.842C206.09 223.284 205.754 223.671 205.466 224.003C200.558 234.002 199.501 245.6 198.666 255.937C199.094 256.115 199.562 256.134 200.072 255.995C202.241 255.843 203.928 253.233 205.038 251.287C209.412 242.571 209.749 231.802 206.475 222.842ZM216.704 88.5053C217.045 87.4433 217.083 86.5062 216.819 85.6941C216.819 85.6941 216.763 85.646 216.653 85.5499C214.606 85.2259 212.335 86.1633 210.519 86.9133C203.297 90.533 197.632 96.3799 191.801 102.083C190.345 103.534 188.786 104.993 187.124 106.459C188.385 106.682 190.389 106.386 191.175 106.487L191.629 106.3C199.976 105.404 206.657 100.732 210.902 96.8536C214.117 93.8255 215.969 91.36 216.704 88.5053ZM192.572 97.5125C192.139 98.0099 191.274 99.0048 190.719 99.978C189.422 101.47 187.548 103.626 186.727 105.241C188.197 103.996 189.66 102.648 191.116 101.196C196.637 95.5151 202.612 89.6465 210.144 86.0051C212.249 84.9235 214.183 84.373 215.946 84.3535C214.598 82.8904 212.219 82.278 209.905 82.5956C205.732 83.0431 202.33 85.6171 200.146 87.7944C197.22 90.4908 194.813 93.9295 192.572 97.5125ZM175.67 67.3914C178.057 70.3392 179.557 73.972 180.249 77.194C182.319 84.5246 182.551 92.2952 182.761 99.7558L182.87 101.306C182.966 101.195 183.062 101.085 183.158 100.974C183.321 100.34 183.492 99.8086 183.67 99.3808C185.86 92.8425 186.147 85.8143 184.74 79.0603C183.839 75.0742 182.382 72.0613 180.537 70.1658C179.188 68.7027 177.408 67.7371 175.67 67.3914ZM181.782 103.562L181.666 99.6767C181.311 92.3819 181.245 84.7554 179.175 77.4249C178.317 74.0587 176.795 70.116 174.099 67.1898C173.479 67.2331 172.914 67.3245 172.405 67.464C169.205 68.4664 167.129 72.1935 166.892 75.4806C166.554 79.5534 168.075 83.4961 169.597 87.4388C171.075 90.7616 173.073 94.8268 175.647 98.2288C177.161 99.836 179.172 101.876 181.782 103.562ZM117.061 75.539C116.247 79.4893 116.384 83.6845 117.264 87.3607C117.375 87.4568 117.382 87.5601 117.286 87.6706C118.276 86.9785 119.189 85.9283 120.025 84.5201C122.388 80.4614 122.308 74.8605 119.547 71.0045C118.206 71.8769 117.406 73.8017 117.061 75.539ZM93.777 72.1836C93.6111 72.0394 93.4887 72.5152 93.3662 72.991C93.0638 75.3482 94.6429 77.8853 98.125 80.9122C100.281 82.7861 106.892 88.2417 112.68 88.6157C111.389 85.7469 109.81 83.2098 107.799 81.1702C104.129 77.6891 99.7387 75.0371 95.8459 72.8176C94.0652 71.852 93.777 72.1836 93.777 72.1836Z" fill="#E46F62"/>
</g>
<defs>
<clipPath id="clip0_4_165">
<rect width="301" height="195.54" fill="white" transform="translate(227.168 345.05) rotate(-139)"/>
</clipPath>
</defs>
</svg>
