<svg width="224" height="241" viewBox="0 0 224 241" fill="none" xmlns="http://www.w3.org/2000/svg">
<path fill-rule="evenodd" clip-rule="evenodd" d="M2.09347 121.839C0.628046 117.443 1.88412 115.35 3.34954 114.512C5.02431 113.256 7.11777 113.675 8.1645 113.884C20.3066 116.396 37.0542 122.467 47.5215 136.075C52.1271 141.727 55.058 149.054 55.8954 156.382C56.3141 159.312 56.5234 163.29 56.1047 167.058C64.8972 157.638 74.7365 149.054 84.1571 140.471C84.9945 139.773 85.8318 139.076 86.6692 138.378C86.2505 138.238 85.8318 137.889 85.4132 137.331C83.1103 135.238 81.2262 132.097 79.3421 129.585C71.5963 118.909 65.1066 107.395 60.0823 95.2524C55.8954 85.4132 52.9645 74.7365 53.1739 64.0599C53.1739 59.6636 54.43 54.43 58.4075 52.3365C63.5714 58.1982 68.805 64.0599 74.1085 69.9216C80.1795 77.0393 86.6692 83.9478 90.8561 92.3216C95.2524 100.695 97.7646 110.325 95.4618 119.537C94.2057 124.98 91.2748 129.795 89.3907 135.028C89.2512 135.586 89.1814 136.005 89.1814 136.284C93.5776 132.307 98.1833 128.12 102.58 123.933C110.116 116.815 116.536 109.697 121.839 102.58C118.28 100.905 116.187 97.3459 114.931 94.2057C101.533 65.944 111.372 28.4711 136.912 10.4673C137.54 10.0486 138.168 10.0486 138.796 10.2579C139.634 10.4673 140.052 11.0953 140.262 11.9327C143.611 27.0056 147.38 43.9627 145.286 60.501C143.89 70.6892 140.401 80.8773 134.819 91.0655C138.168 88.9721 141.937 87.0879 145.286 85.4132C146.961 84.5758 148.496 83.8082 149.892 83.1104C167.477 73.6898 186.109 66.9907 205.368 63.2225C207.881 62.8038 211.021 63.2225 212.905 64.8973C213.952 65.7347 214.37 67.2001 214.161 68.6655C214.021 69.2238 213.742 69.6424 213.324 69.9216C194.273 84.7851 173.548 96.5085 151.148 105.092C145.565 107.185 139.983 109.139 134.4 110.953C129.585 112.419 125.398 111.581 123.305 108.86C123.305 108.72 123.235 108.511 123.095 108.232C118.071 114.512 112.209 120.862 105.51 127.282C99.6487 132.935 93.3683 138.378 87.0879 143.821C84.1571 146.472 81.1564 149.124 78.086 151.776C95.4618 145.077 114.512 142.565 133.353 144.867C144.867 146.124 155.753 149.054 166.011 153.66C167.826 154.497 168.733 155.614 168.733 157.01C168.872 158.545 168.105 159.801 166.43 160.778C162.034 163.29 157.428 165.383 152.823 167.058C146.752 169.57 140.262 171.454 134.191 173.129C122.886 176.269 110.535 179.41 98.1833 179.619C89.6001 180.038 77.458 178.991 68.0374 173.339C64.2692 170.826 63.0131 168.314 62.8038 166.43C58.1982 170.826 54.0113 175.641 50.0337 180.666C46.5446 185.271 43.3346 190.086 40.4038 195.111C47.7309 188.83 71.8057 189.668 76.4113 189.877C77.0393 189.877 77.8767 190.296 77.8767 190.924C77.8767 191.133 77.6674 191.342 77.458 191.552C72.8524 196.157 41.4505 214.161 38.3103 200.972C38.1707 200.274 38.1707 199.577 38.3103 198.879C36.0773 203.066 34.0536 207.392 32.2393 211.858C27.843 222.116 26.3776 229.862 27.215 237.189C27.215 238.236 26.7963 239.073 25.7496 239.492C25.61 239.492 25.4704 239.492 25.3309 239.492C24.0748 239.701 23.0281 238.864 22.8187 237.608C21.772 227.14 25.3309 216.883 28.0524 210.183C32.658 198.879 38.9384 188.202 46.2655 178.572C44.4511 178.851 42.4275 178.782 40.1944 178.363C30.5645 176.269 19.8879 166.639 16.329 160.778C13.6075 156.172 11.9327 150.939 10.258 146.124L2.09347 121.839ZM209.137 67.8281C208.997 67.8281 208.857 67.7583 208.718 67.6188C203.275 72.015 196.366 74.5272 189.877 77.0393L188.621 77.458C167.477 85.4132 146.752 95.0431 126.864 105.929C126.864 106.069 126.933 106.208 127.073 106.348C127.701 107.395 130.004 107.813 133.144 106.766C160.778 98.3926 186.318 85.4132 209.137 67.8281ZM128.329 101.952C127.631 102.928 127.143 103.766 126.864 104.464C146.752 93.787 167.267 84.3665 188.411 76.4113L189.458 75.9926C195.529 73.6898 201.809 71.387 207.043 67.6188C206.764 67.6188 206.485 67.6188 206.206 67.6188C195.32 69.7122 184.713 72.7826 174.385 76.83C166.709 79.7608 159.242 83.1104 151.985 86.8786C150.59 87.716 149.054 88.5534 147.38 89.3908C140.471 92.7403 132.097 97.1366 128.329 101.952ZM140.471 37.2636C137.122 54.43 133.981 71.8057 130.841 89.1814C136.284 79.4119 139.634 69.7122 140.89 60.0823C141.937 52.5459 141.518 44.8 140.471 37.2636ZM136.703 16.329C136.424 16.4685 136.145 16.6779 135.866 16.957C135.656 24.0748 135.237 31.4019 134.191 38.5197C133.772 42.2879 132.935 46.0561 132.307 49.615C131.469 54.8487 130.423 60.2917 129.794 65.7347C129.655 68.2468 129.515 70.8287 129.376 73.4805C128.748 81.2263 128.12 89.1814 126.445 96.2992C127.422 94.764 128.399 93.2288 129.376 91.6936C132.725 72.4337 136.284 53.1739 140.052 33.9141C139.215 28.0524 137.959 21.9813 136.703 16.329ZM127.492 25.5402C124.142 33.9141 121.002 42.4972 119.537 51.2898C118.28 58.4075 118.071 66.572 118.909 75.7833C119.537 83.3197 120.793 90.6468 122.677 97.9739C123.235 98.5322 123.863 98.8811 124.561 99.0207C124.561 99.0207 124.561 99.0905 124.561 99.23C127.073 91.2749 127.701 82.0636 128.12 73.4805C128.399 70.6892 128.608 68.0375 128.748 65.5253C129.376 60.0823 130.213 54.6393 131.26 49.4057C131.888 45.8468 132.725 42.0785 133.144 38.3103C134.191 31.6112 134.4 24.7028 134.819 17.7944C132.167 20.167 129.725 22.7489 127.492 25.5402ZM118.699 92.5309C119.327 93.787 120.165 95.2524 121.211 96.5085C119.537 89.6699 118.42 82.7615 117.862 75.7833C117.024 66.572 117.234 58.4075 118.49 51.0804C119.746 43.544 122.258 36.2169 124.98 28.8897C112.419 47.3122 109.279 72.4337 118.699 92.5309ZM69.0842 162.243C68.6655 162.662 68.3166 163.081 68.0374 163.499C71.387 167.058 76.4113 168.942 81.8543 168.733C96.0898 168.314 110.535 165.802 124.352 163.29C131.051 162.034 136.912 159.94 142.565 158.056C146.542 156.591 150.52 155.335 154.916 154.079C153.939 153.8 152.962 153.52 151.985 153.241C124.142 151.567 95.6711 154.707 69.0842 162.243ZM163.499 157.428C161.406 156.451 159.173 155.614 156.8 154.916C151.776 155.963 147.38 157.638 142.983 159.103C137.331 160.987 131.26 163.081 124.561 164.337C110.744 166.849 96.2991 169.361 81.8543 169.78C76.2019 169.989 70.9683 168.105 67.4094 164.546C67.2698 164.825 67.2001 165.174 67.2001 165.593C67.0605 166.988 68.1072 168.314 70.3402 169.57C78.9234 174.804 90.2281 175.641 98.1833 175.432C110.116 175.223 121.839 172.082 132.935 168.942C143.821 166.011 154.079 162.871 163.499 157.428ZM80.1795 155.753C78.9234 156.312 77.7371 156.8 76.6206 157.219C74.7365 158.056 72.6431 159.312 70.9683 160.568C95.6711 153.869 121.63 150.938 147.17 151.985C142.565 150.729 137.819 149.822 132.935 149.264C114.931 147.17 96.7178 149.473 80.1795 155.753ZM22.4 122.886C17.7944 121.002 13.3981 119.746 9.21123 118.699C18.6318 123.724 27.0056 132.097 34.5421 144.658C38.101 150.52 40.1944 157.219 42.2879 163.499C43.3346 167.058 44.3813 170.826 45.8468 174.176C46.405 174.036 46.9633 173.827 47.5215 173.548C46.2655 154.497 37.0542 135.866 22.6094 123.305C22.4698 123.165 22.4 123.026 22.4 122.886ZM26.3776 154.288C30.9832 160.778 36.8449 168.314 44.3813 173.548C43.1253 170.408 42.0785 167.058 41.2412 163.918C39.1477 157.638 37.2636 150.939 33.7047 145.286C25.3309 131.679 16.329 122.886 6.07104 118.49C11.7234 130.841 18.4225 142.983 26.3776 154.288ZM43.7533 174.385C36.0075 169.152 30.1458 161.615 25.5402 154.916C18.4225 144.867 12.3514 134.191 7.11777 123.305L14.4449 144.867C15.9103 149.473 17.5851 154.288 20.0972 158.475C23.2374 163.918 32.8673 172.501 41.0318 174.176C42.0088 174.315 42.9159 174.385 43.7533 174.385ZM25.1215 124.142C38.5197 136.703 47.3122 154.707 48.7776 173.129C51.4991 171.036 52.5458 164.965 51.7085 157.01C50.8711 150.52 48.1496 144.03 44.172 138.796C38.9384 132.097 32.0299 127.492 25.1215 124.142Z" fill="#BC4E81"/>
<path fill-rule="evenodd" clip-rule="evenodd" d="M154.707 48.987C151.357 45.6374 150.729 40.1944 153.032 36.0075C154.707 32.8673 159.312 30.1458 163.708 29.9365C166.849 29.7271 169.361 30.7738 170.826 32.8673C172.222 34.5421 172.85 36.7053 172.71 39.357C172.71 43.9626 170.826 47.9402 167.686 50.243C167.128 50.5222 166.5 50.8013 165.802 51.0804C162.034 52.5458 157.637 51.7085 154.707 48.987ZM157.847 45.8468C159.731 47.7309 163.08 47.9402 165.174 46.4748C167.477 45.0094 168.314 41.8692 168.523 39.357C168.523 37.6823 168.174 36.3564 167.477 35.3795C166.639 34.3327 165.174 34.1234 163.918 34.3327C160.987 34.5421 157.637 36.4262 156.8 38.101C155.544 40.6131 155.963 43.9626 157.847 45.8468Z" fill="#BC4E81"/>
<path fill-rule="evenodd" clip-rule="evenodd" d="M195.319 40.4037C198.46 40.4037 201.39 41.8692 203.484 44.8C205.368 47.1028 205.996 50.0337 205.159 52.5458C204.74 53.6623 204.042 54.709 203.065 55.686C201.949 56.8025 200.693 57.6399 199.297 58.1981C196.994 59.0355 194.691 59.0355 192.389 58.1981C188.62 56.9421 186.108 52.7551 186.736 48.7776C186.876 47.6611 187.295 46.5446 187.992 45.428C189.876 42.4972 192.389 40.6131 195.319 40.4037ZM193.854 54.2206C195.738 54.8486 198.25 54.2206 199.925 52.7552C200.483 52.1969 200.832 51.6386 200.972 51.0804C201.39 50.0337 200.972 48.5682 200.134 47.5215C198.669 45.6374 197.204 44.8 195.529 44.8C194.273 45.0094 192.807 45.8467 191.761 47.7309C191.342 48.4287 191.063 49.0567 190.923 49.615C190.714 51.2897 191.97 53.5925 193.854 54.2206Z" fill="#BC4E81"/>
<path d="M186.736 20.7252C187.992 21.1439 189.249 21.1439 190.295 20.7252C191.761 20.0972 192.598 18.6318 192.598 17.1664C192.807 15.4916 192.389 14.0262 191.761 12.5608C189.458 7.11777 182.34 12.1421 182.549 16.5383C182.549 17.3757 182.759 18.0037 183.177 18.6318C183.806 19.8879 185.271 20.5159 186.736 20.7252Z" fill="#BC4E81"/>
<path d="M214.579 3.55887C214.161 5.44299 215.207 7.3271 216.673 8.37383C217.719 9.21121 218.976 9.62991 220.232 9.21121C220.65 9.07165 221.069 8.79252 221.488 8.37383C222.744 7.11775 223.581 5.23364 222.953 3.34953C221.697 -0.418698 215.626 -0.418698 214.579 3.55887Z" fill="#BC4E81"/>
</svg>
