<svg width="211" height="179" viewBox="0 0 211 179" fill="none" xmlns="http://www.w3.org/2000/svg">
<g clip-path="url(#clip0_4_1121)">
<path fill-rule="evenodd" clip-rule="evenodd" d="M10.2093 112.454C9.81755 110.91 9.15718 108.886 10.0564 106.837C10.5788 105.52 11.4183 104.49 12.1608 103.848L16.0189 100.057C15.4244 98.8069 14.8909 97.5718 14.4183 96.3518C14.0639 95.4368 13.7579 94.3273 13.8662 93.1144C13.9371 91.2722 15.2393 89.9437 16.0788 88.9131C16.59 88.4206 16.9183 87.8825 17.2467 87.3444C17.279 87.2147 17.2504 87.0698 17.1609 86.9097C16.6236 85.9492 16.1348 84.7941 16.2916 83.3866C16.4968 81.7846 17.6162 80.4104 17.9445 79.8723C19.0316 78.6279 20.2243 77.4788 21.5227 76.4248C21.0713 75.899 20.437 75.3275 20.1311 74.218C20.105 72.7649 20.7617 71.6888 21.0415 71.3452C22.5987 69.2537 24.2454 67.3222 25.9816 65.5508C28.5213 63.1532 30.9889 61.5641 33.3843 60.7837C33.2947 60.6236 33.2052 60.4635 33.1157 60.3034C32.6642 59.7775 31.4441 58.4401 31.8807 56.6891C32.086 55.0871 33.2426 54.3422 33.7538 53.8497C36.1156 52.1654 38.9401 50.1832 42.3019 49.1616C48.0143 47.2794 54.6072 48.0966 60.7523 51.4886C63.1178 52.905 65.6176 54.5615 68.2032 56.6527C68.6261 57.0337 69.1099 57.4299 69.6546 57.8412C70.5327 58.4734 71.4107 59.1057 72.2888 59.7379C77.7177 55.0986 82.3406 49.0185 85.598 42.1845C80.6769 33.1048 76.3751 22.3197 73.021 9.29104C71.9073 9.30776 68.139 -9.849 69.1502 -10.0102C70.2098 -10.366 73.6765 -4.29938 76.8455 7.97143C82.3783 29.396 89.8291 44.686 100.272 55.7625C112.656 69.1825 131.162 77.5164 149.403 78.3448C152.385 74.9551 154.549 70.9483 155.982 66.7592C156.273 65.5919 157.564 65.0872 158.429 65.5097C159.526 65.7832 160.015 66.9383 159.724 68.1056C158.437 71.711 156.784 75.2252 154.496 78.168C155.536 78.1517 156.515 78.1202 157.433 78.0736C157.587 77.9742 157.68 77.8597 157.713 77.73C162.227 72.8628 165.791 67.1384 168.123 60.9004C168.597 59.7787 169.705 59.2283 170.753 59.6964C171.802 60.1644 172.29 61.3196 171.817 62.4413C169.727 67.7066 166.906 72.7895 163.268 77.2554C164.495 77.01 165.737 76.6999 166.996 76.3248C167.15 76.2255 167.32 76.0614 167.507 75.8323C173.253 71.4788 178.327 65.9245 182.036 59.6164C182.644 58.7348 183.887 58.4246 184.704 59.0417C185.752 59.5097 186.01 60.8138 185.353 61.89C182.726 66.1947 179.551 70.3626 175.924 74.0047C176.046 74.0351 176.229 74.0807 176.473 74.1414C183.905 73.928 191.364 75.1677 198.251 77.9182C199.117 78.3407 199.606 79.4958 199.315 80.6631C198.841 81.7849 197.733 82.3352 196.684 81.8672C190.162 79.2078 182.887 78.0137 175.82 78.3183C175.511 78.5169 175.158 78.6355 174.76 78.674C180.148 80.4306 185.196 83.5491 189.502 87.3091C190.27 88.1207 190.345 89.3792 189.554 90.2152C188.994 90.9022 188.349 91.1546 187.617 90.9723C187.252 90.8811 186.963 90.7403 186.752 90.5498C181.226 85.4524 174.301 82.0727 166.977 81.0731C166.733 81.0124 166.567 80.9019 166.477 80.7418C164.942 81.1858 163.379 81.4848 161.787 81.639C164.031 83.025 166.197 84.4606 168.286 85.9459C170.603 87.5568 173.238 89.4535 174.155 92.7821C174.461 93.8916 173.805 94.9678 172.745 95.3236C172.437 95.5222 172.1 95.5759 171.734 95.4848C171.003 95.3024 170.551 94.7766 170.331 94.1017C169.671 92.0772 167.719 90.5575 166.085 89.3234C162.451 86.7641 158.691 84.449 154.806 82.3782C154.132 82.4857 153.535 82.5435 153.015 82.5516C146.777 82.6494 140.549 81.9234 134.333 80.3736C133.968 80.2824 133.557 80.1112 133.102 79.8599C133.557 80.1112 133.952 80.3472 134.285 80.5681C142.027 84.5649 149.064 89.8324 155.261 96.1306C157.884 98.851 157.35 100.991 156.876 102.113C156.22 103.189 155.294 103.785 154.832 104.083C154.401 104.251 154.032 104.435 153.724 104.633C156.958 109.573 159.682 115.005 161.76 120.689C162.029 121.169 162.2 122.039 161.909 123.206C161.435 124.328 160.376 124.684 160.096 125.027C158.959 125.433 157.9 125.788 156.917 126.095C157.824 130.247 155.648 135.077 151.716 137.61C151.895 137.93 152.058 138.315 152.204 138.765C152.693 139.92 153.085 141.464 153.062 143.112C152.954 144.325 152.48 145.447 151.824 146.523C151.913 146.683 152.003 146.843 152.092 147.003C152.63 147.964 153.167 148.924 153.376 150.423C153.756 152.791 152.577 155.184 151.544 156.992C149.638 159.961 147.537 162.675 145.242 165.134C144.219 166.119 143.148 167.298 141.578 168.146C139.544 169.293 137.156 169.524 134.962 168.977C132.951 168.475 131.317 167.241 129.963 165.664C128.094 165.887 126.23 165.835 124.37 165.509C123.85 165.517 123.346 165.461 122.859 165.339C121.762 165.066 120.53 164.552 119.627 163.5C118.773 162.254 118.333 160.904 118.161 160.035L116.814 154.533C115.498 154.618 114.199 154.638 112.915 154.594C112.517 154.633 112.014 154.576 111.404 154.424C110.917 154.302 110.461 154.051 110.039 153.67C108.539 152.676 107.964 151.086 107.524 149.737C107.304 149.062 107.084 148.387 106.766 148.101C106.799 147.972 106.815 147.907 106.815 147.907C106.693 147.876 106.555 147.911 106.401 148.01C105.852 147.873 105.073 147.886 104.341 147.703C103.976 147.612 103.565 147.441 103.11 147.19C101.927 146.481 101.304 145.086 100.815 143.931C100.286 142.421 99.8939 140.877 99.6402 139.298C99.226 139.402 98.3492 139.803 97.4351 139.575C97.3132 139.545 97.2523 139.53 97.2523 139.53C96.021 139.016 95.5322 137.861 95.2636 137.381C94.2861 135.07 93.5238 132.676 92.9766 130.197C92.1359 126.819 91.978 123.818 92.5029 121.193C92.3487 121.293 92.2106 121.327 92.0887 121.297C91.4433 121.549 90.4321 121.71 89.518 121.482C89.0305 121.361 88.6362 121.125 88.3352 120.774C87.201 119.871 86.9921 118.373 86.9548 117.744C86.5369 114.746 86.399 111.405 87.1378 107.663C88.2759 101.541 92.2049 95.9077 98.1822 91.4052C100.496 89.9154 103.04 88.2767 106.316 86.8204C106.747 86.6521 107.27 86.3694 107.887 85.9721C108.78 85.5059 109.75 84.9901 110.797 84.4246C109.57 76.8858 106.686 69.7606 102.365 63.7237C102.276 63.5637 102.231 63.4836 102.231 63.4836C100.54 61.9598 98.9253 60.3862 97.3881 58.7631C94.0127 55.1662 90.9048 51.016 88.0642 46.3125C84.5382 52.6661 80.2436 58.2081 74.8147 62.8474C78.0943 64.4917 82.2396 66.5585 84.2916 70.7899C85.7206 73.6259 85.9071 76.7722 85.9108 79.8729C85.9218 89.1749 84.653 98.1579 82.0075 107.211C80.903 110.862 78.7837 111.573 77.8211 111.54C77.4554 111.449 77.1507 111.373 76.907 111.312C76.1757 111.13 75.6757 110.798 75.1757 110.467C74.8424 110.246 74.5091 110.025 74.1758 109.804C71.6236 115.368 68.2058 120.508 64.288 125.318C64.0082 125.661 63.4 126.543 62.206 126.659C61.9623 126.598 61.7185 126.537 61.4747 126.476C60.7434 126.294 60.2435 125.963 60.1092 125.722C59.2634 124.961 58.4177 124.199 57.572 123.437C55.4788 125.601 51.9827 126.383 48.8747 125.608C47.7778 125.334 46.7294 124.866 45.7294 124.204C45.5105 124.562 45.2916 124.921 45.0727 125.28C44.2332 126.31 43.1623 127.49 41.64 128.144C40.5319 128.694 39.3379 128.81 38.4238 128.582C38.2372 128.811 38.1116 129.055 38.0469 129.314C37.4387 130.196 36.782 131.272 35.8082 132.063C33.8605 133.644 31.2897 133.829 29.413 133.568C27.0002 133.38 24.6969 133.012 22.503 132.465C21.6498 132.252 20.8128 131.975 19.9919 131.632C18.5293 131.268 17.1152 130.708 15.7982 129.76C12.3469 127.246 10.9516 121.939 12.5672 117.795C11.7041 116.065 10.9182 114.284 10.2093 112.454ZM110.584 110.203C112.8 109.102 115.2 108.047 117.013 106.226C119.617 103.569 121.002 99.5745 120.364 95.9024C120.129 92.9507 117.625 88.1935 115.248 87.6009C114.972 87.6698 114.712 87.6739 114.469 87.6131C114.347 87.5827 114.225 87.5523 114.103 87.5219C113.916 87.751 113.685 87.8999 113.409 87.9689C113.255 88.0682 113.117 88.1026 112.995 88.0723C111.935 88.428 110.596 89.1273 109.67 89.7232C108.932 90.0901 108.27 90.4073 107.685 90.6748C104.824 92.0278 102.559 93.323 100.428 94.8583C95.4248 98.5704 91.8727 103.471 91.0256 108.426C90.2495 111.539 90.4845 114.491 90.768 117.248C90.768 117.248 90.7518 117.313 90.7195 117.442C90.8737 117.343 91.0118 117.309 91.1336 117.339C97.8087 115.49 104.398 113.207 110.584 110.203ZM137.761 125.038C135.876 124.293 134.421 123.379 133.396 122.297C133.055 122.625 132.731 122.888 132.422 123.087C129.684 125.504 126.542 127.2 123.229 128.028C122.035 128.143 120.792 128.453 119.33 128.089C119.208 128.058 119.147 128.043 119.147 128.043C118.294 127.83 117.505 127.358 116.781 126.627C116.311 127.474 115.841 128.321 115.371 129.168C115.639 129.648 115.994 130.563 116.177 130.609C118.771 133.185 121.661 135.352 124.848 137.111C125.482 137.682 126.53 138.15 127.31 138.138C127.952 138.16 128.719 137.938 129.612 137.472C132.937 135.821 135.687 132.58 138.022 129.443C139.085 127.779 139.575 126.592 139.493 125.883C138.916 125.601 138.338 125.32 137.761 125.038ZM140.179 139.487C139.537 139.464 138.912 139.377 138.302 139.225C137.449 139.013 136.567 138.655 135.657 138.152C134.943 138.939 134.123 139.63 133.198 140.226C133.377 140.546 133.54 140.931 133.687 141.381C134.09 142.101 135.067 144.412 134.119 146.655C133.743 147.388 133 148.029 132.489 148.522C131.345 149.476 130.095 150.336 128.739 151.1C129.072 151.321 129.329 151.591 129.508 151.911C129.825 152.197 130.093 152.677 130.411 152.963C130.91 153.294 131.556 153.042 132.336 153.03C137.891 152.555 143.432 149.804 147.387 145.623C148.13 144.982 149.018 143.757 149.078 142.738C149.223 142.155 148.869 141.24 148.514 140.325C148.335 140.005 148.172 139.62 148.025 139.17C145.784 139.851 143.169 139.956 140.179 139.487ZM129.273 108.456C128.51 108.404 127.701 108.271 126.848 108.058C125.203 107.648 123.423 106.998 122.106 106.049C121.449 107.126 120.61 108.156 119.587 109.141C118.237 110.664 116.617 111.707 114.864 112.51C114.986 112.54 115.047 112.555 115.047 112.555L115.632 113.321C116.267 113.893 116.987 114.899 117.658 116.1C118.163 117.19 118.343 118.544 118.199 120.161C118.192 120.71 118.168 121.324 118.128 122.003C118.877 123.154 119.617 123.821 120.348 124.003C120.897 124.14 121.677 124.128 122.322 123.875C125.221 123.151 127.852 121.947 130.079 120.023C130.128 119.828 130.359 119.679 130.59 119.531C130.623 119.401 130.655 119.271 130.687 119.141C130.598 118.981 130.569 118.836 130.601 118.707C130.247 117.792 129.941 116.682 129.587 115.767C129.109 113.788 128.46 110.94 129.273 108.456ZM98.7336 135.146L104.226 132.589C106.211 131.637 108.196 130.686 109.864 129.448C112.554 127.226 114.207 123.712 114.3 120.222C114.405 119.284 114.339 118.509 114.102 117.899C113.834 117.419 113.382 116.893 112.748 116.322L112.162 115.556C111.845 115.27 111.711 115.03 111.077 114.459C106.4 116.599 101.683 118.385 96.9243 119.816C95.928 122.254 95.7974 125.115 96.7525 129.072C97.2748 131.131 97.9352 133.156 98.7336 135.146ZM106.505 143.697C108.585 143.664 110.684 143.292 112.804 142.58C114.095 142.076 117.371 140.619 117.867 137.85C117.867 137.85 117.944 137.8 118.098 137.701C116.464 136.467 114.907 135.183 113.427 133.85C113.293 133.61 112.841 133.084 112.438 132.363C112.406 132.493 112.312 132.608 112.158 132.707C110.211 134.288 107.994 135.388 105.826 136.294L103.379 137.544C103.633 139.123 104.008 140.732 104.506 142.371C104.64 142.611 104.994 143.526 105.177 143.572C105.494 143.858 106.091 143.8 106.505 143.697ZM129.963 145.412C130.011 145.218 130.474 144.92 130.523 144.725C130.523 144.725 130.802 144.382 130.131 143.181C129.984 142.731 129.76 142.331 129.459 141.98C128.631 142.187 127.819 142.329 127.023 142.406C126.657 142.315 126.231 142.208 125.743 142.087C124.646 141.813 123.598 141.345 122.732 140.923C122.309 140.542 121.87 140.226 121.415 139.974C120.322 142.802 117.814 145.07 113.99 146.389C112.975 146.825 111.932 147.116 110.86 147.262C111.039 147.582 111.141 147.952 111.165 148.372C111.568 149.092 111.74 149.961 112.057 150.247C112.423 150.338 112.971 150.475 113.385 150.372C119.661 150.903 125.556 149.066 129.963 145.412ZM134.526 160.602C136.735 160.051 138.184 159.172 138.873 157.966C139.432 157.279 139.626 156.501 139.455 155.631C137.181 156.442 134.851 156.963 132.463 157.195C131.634 157.401 130.672 157.368 129.758 157.14C129.27 157.018 128.799 156.832 128.343 156.581C127.343 155.918 126.758 155.152 126.355 154.432C126.22 154.192 125.721 153.86 125.355 153.769C125.143 153.579 124.871 153.373 124.538 153.152C123.279 153.527 122.037 153.837 120.81 154.083L121.937 158.91C122.157 159.585 122.377 160.26 122.694 160.545C123.097 161.266 124.243 161.345 124.974 161.527C128.179 161.913 131.395 161.475 134.526 160.602ZM149.514 151.113C149.489 150.694 149.281 150.229 148.891 149.718C147.187 151.36 145.288 152.746 143.193 153.877C143.805 156.096 143.406 158.476 142.141 160.434C140.499 163.125 137.552 164.043 135.432 164.754C136.895 165.119 138.637 165.14 139.794 164.395C140.902 163.845 141.693 163.009 142.484 162.173C144.594 159.944 146.492 157.524 148.178 154.913C148.883 153.643 149.637 152.177 149.514 151.113ZM153.007 126.979C149.791 127.417 146.488 127.421 143.332 126.84C142.981 129.026 141.716 130.984 141.108 131.865C140.329 132.911 139.551 133.957 138.772 135.003C139.382 135.155 140.052 135.322 140.783 135.504C144.415 135.996 147.371 135.562 149.652 134.202C151.917 132.907 153.656 129.828 153.141 127.22C153.019 127.189 152.974 127.109 153.007 126.979ZM149.985 106.388C144.773 108.601 138.888 109.614 133.393 109.07C132.736 110.146 132.713 111.794 133.411 114.448C133.717 115.557 134.157 116.907 134.695 117.867C135.533 119.179 137.061 120.317 139.28 121.284C145.071 123.761 151.858 123.8 157.716 121.334C155.678 116.004 153.102 111.022 149.985 106.388ZM132.583 84.2769C129.987 83.0095 127.89 82.0734 125.733 82.1556C123.576 82.2379 121.36 83.3385 118.998 85.0228C122.084 87.4453 123.99 92.2603 124.457 95.063C124.654 97.3855 124.487 99.6168 123.953 101.757C124.71 103.392 128.05 104.018 130.426 104.611C138.068 105.896 146.205 104.412 153 100.526C153.186 100.297 153.28 100.183 153.28 100.183C153.28 100.183 153.011 99.7026 152.56 99.1767C146.679 93.1643 139.96 88.1825 132.583 84.2769ZM127.3 78.2067C121.23 76.0732 115.719 73.2527 110.402 69.6539C112.406 74.0798 113.812 78.5635 114.573 83.2995C117.495 80.9282 121.293 78.1555 125.789 78.0366C126.309 78.0284 126.813 78.0851 127.3 78.2067ZM33.5136 128.804C33.7449 128.655 34.0733 128.117 34.4016 127.579C32.2724 126.773 30.285 125.657 28.4394 124.232C26.8573 125.905 24.6895 126.811 22.4471 126.458C22.171 126.527 21.8501 126.516 21.4845 126.425C18.9249 125.787 17.0706 123.878 15.8991 122.346C16.0595 124.039 16.8654 125.48 17.9996 126.383C18.9995 127.045 20.0965 127.319 21.1449 127.787C23.9159 128.615 26.8125 129.2 29.8347 129.54C30.9801 129.619 32.5398 129.595 33.5136 128.804ZM42.0841 122.468C42.2707 122.239 42.5344 121.96 42.8751 121.632C41.2808 119.719 39.9985 117.333 39.0285 114.474C38.6367 112.929 38.0622 111.34 38.3159 109.543C37.3732 109.17 36.3857 108.717 35.3534 108.184C35.1345 108.543 34.9156 108.902 34.6967 109.261C34.1371 109.948 32.6408 112.054 30.4842 112.137C30.0863 112.175 29.6435 112.134 29.156 112.012C28.7903 111.921 28.4408 111.765 28.1075 111.544C26.8315 110.95 25.5878 110.227 24.3764 109.374C24.2794 109.763 24.1824 110.152 24.0854 110.541C23.757 111.079 23.66 111.468 23.563 111.857C23.4175 112.441 23.8204 113.162 24.2719 113.687C27.141 118.536 31.8123 122.387 37.2 124.144C38.1142 124.372 39.3939 124.691 40.2708 124.289C40.9162 124.037 41.4759 123.35 42.0841 122.468ZM24.4999 90.1861C25.5857 91.2834 28.1228 93.5692 30.6562 92.7543C30.6562 92.7543 30.7172 92.7695 30.8391 92.7999C31.1127 90.6639 31.553 88.6382 32.16 86.7231C32.257 86.334 32.451 85.5557 32.7794 85.0176C32.6575 84.9873 32.5356 84.9569 32.4137 84.9265C30.1826 83.7502 28.414 82.276 26.5112 80.5617L24.5598 79.0419C23.2614 80.0958 22.0686 81.245 20.9816 82.4894C20.7503 82.6384 20.1906 83.3255 20.2764 83.7602C20.2279 83.9547 20.448 84.6295 20.5823 84.8697C21.6245 86.9205 22.9304 88.6927 24.4999 90.1861ZM35.8165 87.6347C34.911 91.2664 34.3712 94.9893 34.197 98.8034C34.1373 99.8217 34.2604 100.886 34.6148 101.801C34.8511 102.411 35.3473 103.017 36.1035 103.618C39.0548 105.801 42.8941 106.758 46.6476 107.281C48.3863 107.576 49.5803 107.461 50.2295 106.934C50.1474 106.224 50.0492 105.58 49.9348 105C49.8104 102.903 49.9423 101.076 50.3304 99.5195C49.9647 99.4283 49.6762 99.2875 49.4647 99.097C46.3194 97.6928 43.3681 95.5105 41.3422 92.7322C40.5736 91.9206 39.7192 90.6743 39.3275 89.1301C39.1882 88.131 39.2479 87.1126 39.5066 86.075C38.5887 86.1217 37.6871 86.1035 36.8015 86.0205C36.4732 86.5586 35.9135 87.2456 35.8165 87.6347ZM45.5361 84.4786C45.1058 84.6468 44.5984 84.8647 44.0138 85.1323C43.3248 86.3381 43.0822 87.3109 43.2862 88.0506C43.275 88.8744 43.9093 89.4458 44.3122 90.1663C46.118 92.2697 48.3865 94.0752 50.9834 95.3426C51.1662 95.3882 51.5319 95.4794 51.5319 95.4794C51.7756 95.5402 51.9137 95.5057 51.946 95.376C52.1002 95.2767 52.1773 95.227 52.1773 95.227C52.9684 94.391 53.5765 93.5094 54.3191 92.8679C55.6698 91.3448 57.7144 89.3748 60.1509 88.949C59.5875 86.5354 58.7555 83.6415 59.2033 81.0667C58.3178 80.9837 57.4485 80.8358 56.5953 80.6231C56.2296 80.5319 55.803 80.4256 55.3155 80.304C53.5358 79.6536 52.0359 78.6597 50.5845 77.4712C50.5845 77.4712 50.5683 77.5361 50.536 77.6658L50.1591 78.3984C49.8681 79.5658 49.577 80.7331 48.7375 81.7637C48.0808 82.8399 47.0137 83.7448 45.5361 84.4786ZM55.2774 120.178C53.4343 117.445 52.0539 114.415 51.1361 111.086C48.9683 111.992 46.7259 111.64 45.8117 111.412C44.6825 111.268 43.5084 111.044 42.2896 110.74C42.3716 111.45 42.5146 112.174 42.7186 112.914C43.9821 116.673 45.6748 119.23 47.7965 120.586C49.7964 121.911 53.0014 122.297 55.0461 120.327C55.0461 120.327 55.1232 120.277 55.2774 120.178ZM71.1387 107.187C67.0159 103.473 63.5983 98.4879 61.4716 92.998C60.3262 92.9191 58.9382 93.8129 57.1248 95.634C56.2853 96.6645 55.3115 97.455 54.8376 98.5768C54.0839 100.042 53.7816 102.033 53.9308 104.55C54.3896 111.277 57.2848 117.579 62.042 121.865C65.6189 117.384 68.6512 112.491 71.1387 107.187ZM80.6873 72.7843C79.6613 70.6686 77.7099 69.1489 75.3444 67.7325C74.6914 71.9093 71.5161 76.0772 69.3371 77.8071C67.438 79.1935 65.453 80.1451 63.3822 80.6621C62.4457 82.0818 63.4978 85.6505 64.0611 88.0641C66.2026 95.8308 71.0604 102.828 77.3772 107.09C77.6209 107.15 77.7876 107.261 77.8771 107.421C77.7428 107.181 78.0227 106.837 78.2167 106.059C80.7167 97.5897 81.9369 88.8013 82.0117 79.934C81.9596 77.0279 81.7618 74.7054 80.6873 72.7843ZM35.8171 57.2572C35.9066 57.4173 36.0123 57.5126 36.1342 57.543C40.4174 62.9506 45.3947 67.9112 50.5174 72.2882C52.4688 73.808 54.3716 75.5223 56.6998 76.3095C60.125 77.3701 64.1695 76.7253 66.8597 74.503C69.2701 72.6241 72.2252 67.7814 71.479 65.3222C71.3895 65.1621 71.2999 65.002 71.2104 64.8419C71.2427 64.7122 71.2141 64.5673 71.1246 64.4072C70.7589 64.316 70.4866 64.1103 70.3075 63.7902C70.3075 63.7902 70.2627 63.7101 70.1732 63.55C69.4046 62.7384 68.2703 61.8357 67.2704 61.1731C66.7257 60.7617 66.2419 60.3656 65.819 59.9846C63.2334 57.8934 61.0992 56.3281 58.868 55.1518C53.54 52.3768 47.9097 51.593 43.257 53.1194C40.5407 53.8887 38.1304 55.7675 35.9999 57.3028C35.9999 57.3028 35.9389 57.2876 35.8171 57.2572ZM24.407 73.4242L29.0298 77.4699C30.664 78.704 32.4325 80.1782 34.1637 81.0231C37.1262 82.3817 40.8424 82.275 43.9356 80.7731C44.7067 80.2765 45.2788 79.7992 45.6519 79.3412C45.9802 78.8031 46.1743 78.0248 46.5511 77.2922L46.7937 76.3194C46.8907 75.9303 46.9877 75.5412 47.1817 74.763C43.4656 71.4944 39.8751 67.9816 36.4102 64.2246C34.0222 64.4558 31.5261 65.9 28.6904 68.706C27.173 70.1186 25.7452 71.6914 24.407 73.4242ZM19.6756 90.8431C19.4567 91.2018 19.193 91.4805 18.8846 91.6792C18.3249 92.3662 17.8137 92.8587 17.851 93.488C17.8025 93.6825 17.8398 94.3118 18.1084 94.7921C20.5037 100.762 24.5668 105.495 29.6262 107.79C29.809 107.835 30.1746 107.926 30.3575 107.972C30.3575 107.972 30.7716 107.869 31.6111 106.838C31.83 106.479 32.0651 106.056 32.3164 105.567C31.6821 104.996 31.202 104.325 30.8762 103.555C30.3016 101.965 30.324 100.318 30.2979 98.8645C30.3377 98.1856 30.3614 97.5715 30.3689 97.0223C29.4187 97.1987 28.456 97.1654 27.481 96.9222C25.6527 96.4664 23.6529 95.1412 21.7985 93.2323C20.9528 92.4704 20.2452 91.674 19.6756 90.8431ZM13.5674 108.332C13.3733 109.11 13.6793 110.22 13.8994 110.895C15.0485 114.074 16.7946 117.196 18.9176 119.585C20.4063 121.403 21.7719 122.157 23.0516 122.476C23.8314 122.464 24.6597 122.257 25.4023 121.615C23.6213 119.931 22.0879 118.034 20.8019 115.922C20.1303 114.721 19.5072 113.326 19.5297 111.678C19.6379 110.466 20.0633 109.538 20.4401 108.806C20.4886 108.611 20.6341 108.027 20.7312 107.638C20.7063 107.219 20.7424 106.815 20.8394 106.425C19.9041 105.503 19.046 104.532 18.265 103.51L14.8696 107.004C14.4069 107.301 13.8472 107.989 13.5674 108.332Z" fill="#BC4E81"/>
<path fill-rule="evenodd" clip-rule="evenodd" d="M123.009 36.4302C126.181 39.2874 125.726 45.7867 123.852 48.6261C122.539 50.7785 119.726 51.9369 117.166 51.2987C117.044 51.2683 116.923 51.2379 116.801 51.2076C115.062 50.9118 113.44 49.8875 111.935 48.1346C110.276 46.4811 109.49 44.7008 109.577 42.7938C109.648 40.9516 110.682 39.1428 112.398 37.7109C114.857 35.6375 119.79 33.7676 123.009 36.4302ZM113.428 42.9272C113.42 43.4764 113.884 44.212 114.82 45.1341C115.934 46.3763 116.979 47.1189 117.954 47.362C119.099 47.441 120.159 47.0852 120.536 46.3526C121.703 44.7839 121.711 40.8594 120.442 39.7165C119.174 38.5736 116.178 39.6865 114.693 40.9694C113.95 41.6109 113.573 42.3435 113.428 42.9272Z" fill="#BC4E81"/>
<path fill-rule="evenodd" clip-rule="evenodd" d="M135.259 39.4843C135.572 36.6693 137.714 34.3102 140.43 33.5409C142.732 32.875 145.012 33.8567 146.452 35.8689C147.795 38.2703 147.799 41.371 146.023 43.8213C144.71 45.9736 142.176 46.7885 139.799 46.1959C136.874 45.4666 135.08 42.5394 135.259 39.4843ZM139.244 39.8578C139.184 40.8762 139.904 41.8823 140.818 42.1103C141.684 42.5327 142.609 41.9368 142.937 41.3988C143.497 40.7117 143.654 39.3042 143.165 38.1491C142.579 37.3831 141.799 37.3953 141.154 37.6477C140.326 37.8545 139.352 38.6449 139.244 39.8578Z" fill="#BC4E81"/>
<path fill-rule="evenodd" clip-rule="evenodd" d="M124.319 21.0513C124.062 19.7472 124.219 18.3397 125.107 17.1146C127.077 13.8861 129.55 14.0895 130.465 14.3175C132.476 14.8189 134.099 16.8767 134.296 19.1992C134.446 21.7162 133.315 23.9141 130.916 24.9692C130.177 25.336 129.426 25.4932 128.662 25.4405C128.54 25.4101 128.418 25.3798 128.297 25.3494C127.565 25.167 126.931 24.5956 126.614 24.3099C125.797 23.6928 124.662 22.7901 124.319 21.0513ZM128.047 20.1208C128.181 20.3609 128.815 20.9324 128.998 20.978C129.132 21.2181 129.315 21.2637 129.498 21.3093C130.423 20.7134 130.435 19.8896 130.483 19.695C130.263 19.0202 129.812 18.4943 129.446 18.4031C129.08 18.312 128.752 18.8501 128.424 19.3881C128.144 19.7317 128.095 19.9262 128.047 20.1208Z" fill="#BC4E81"/>
</g>
<defs>
<clipPath id="clip0_4_1121">
<rect width="179" height="150.384" fill="white" transform="translate(36.3812 -11) rotate(14)"/>
</clipPath>
</defs>
</svg>
