<svg width="75" height="75" viewBox="0 0 75 75" fill="none" xmlns="http://www.w3.org/2000/svg">
<path d="M24.375 6.25H50.6251C60.6251 6.25 68.7501 14.375 68.7501 24.375V50.6251C68.7501 55.4321 66.8405 60.0423 63.4414 63.4414C60.0423 66.8405 55.4321 68.7501 50.6251 68.7501H24.375C14.375 68.7501 6.25 60.6251 6.25 50.6251V24.375C6.25 19.568 8.1596 14.9578 11.5587 11.5587C14.9578 8.1596 19.568 6.25 24.375 6.25ZM23.75 12.5C20.7663 12.5 17.9048 13.6853 15.7951 15.7951C13.6853 17.9048 12.5 20.7663 12.5 23.75V51.2501C12.5 57.4688 17.5313 62.5001 23.75 62.5001H51.2501C54.2337 62.5001 57.0952 61.3148 59.205 59.205C61.3148 57.0952 62.5001 54.2337 62.5001 51.2501V23.75C62.5001 17.5313 57.4688 12.5 51.2501 12.5H23.75ZM53.9063 17.1875C54.9423 17.1875 55.9359 17.5991 56.6685 18.3316C57.401 19.0642 57.8126 20.0578 57.8126 21.0938C57.8126 22.1298 57.401 23.1233 56.6685 23.8559C55.9359 24.5885 54.9423 25 53.9063 25C52.8703 25 51.8767 24.5885 51.1442 23.8559C50.4116 23.1233 50.0001 22.1298 50.0001 21.0938C50.0001 20.0578 50.4116 19.0642 51.1442 18.3316C51.8767 17.5991 52.8703 17.1875 53.9063 17.1875ZM37.5 21.875C41.6441 21.875 45.6183 23.5212 48.5486 26.4515C51.4789 29.3817 53.1251 33.356 53.1251 37.5C53.1251 41.6441 51.4789 45.6183 48.5486 48.5486C45.6183 51.4789 41.6441 53.1251 37.5 53.1251C33.356 53.1251 29.3817 51.4789 26.4515 48.5486C23.5212 45.6183 21.875 41.6441 21.875 37.5C21.875 33.356 23.5212 29.3817 26.4515 26.4515C29.3817 23.5212 33.356 21.875 37.5 21.875ZM37.5 28.125C35.0136 28.125 32.6291 29.1128 30.8709 30.8709C29.1128 32.6291 28.125 35.0136 28.125 37.5C28.125 39.9865 29.1128 42.371 30.8709 44.1292C32.6291 45.8873 35.0136 46.8751 37.5 46.8751C39.9865 46.8751 42.371 45.8873 44.1292 44.1292C45.8873 42.371 46.8751 39.9865 46.8751 37.5C46.8751 35.0136 45.8873 32.6291 44.1292 30.8709C42.371 29.1128 39.9865 28.125 37.5 28.125Z" fill="#E46F62"/>
</svg>
