<svg width="134" height="139" viewBox="0 0 134 139" fill="none" xmlns="http://www.w3.org/2000/svg">
<g clip-path="url(#clip0_4_1105)">
<path fill-rule="evenodd" clip-rule="evenodd" d="M48.8557 68.0086C53.4254 87.9556 73.2124 104.303 101.81 111.805C98.7922 107.054 91.4287 105.977 91.1821 99.6504C91.7849 99.2143 92.2619 98.6434 92.5586 98.745C100.127 102.531 107.812 106.334 115.29 110.456C117.824 111.875 118.973 114.839 117.146 116.668C113.097 120.444 109.182 124.473 102.454 126.46C102.664 123.113 102.828 120.69 102.982 118.907C94.6756 116.062 86.4227 113.923 78.5217 110.322C59.8612 102.002 46.4652 88.3939 40.6277 68.4945C39.6951 65.3295 37.9698 63.9123 35.3006 62.2406C24.318 55.3345 17.0604 45.7114 14.1209 33.5745C13.0365 29.1641 12.1502 24.3167 17.1614 21.0307C16.3816 29.0708 18.4621 35.9566 22.8357 42.5953C27.0297 49.1494 32.1325 54.7298 39.0718 57.8413C42.3488 53.0203 44.7987 47.9618 48.6233 44.2692C52.4479 40.5767 57.2431 37.492 62.2982 35.5519C67.5152 33.4608 73.3308 36.2332 76.9688 40.784C80.5529 45.3852 81.025 50.8709 77.802 55.6416C72.6975 63.0494 65.0692 66.8847 55.5999 67.7716C53.3607 67.9684 51.1038 67.9296 48.8557 68.0086ZM48.2769 61.1094C58.734 61.823 65.7144 58.5919 71.0158 52.2613C72.7709 50.2464 74.1397 47.7091 71.4177 44.5736C69.073 41.8428 66.3301 42.2571 64.0364 43.2613C56.6513 46.4915 51.5214 52.0318 48.2769 61.1094Z" fill="#E46F62"/>
</g>
<defs>
<clipPath id="clip0_4_1105">
<rect width="139.241" height="53.1546" fill="white" transform="translate(39.038) rotate(47)"/>
</clipPath>
</defs>
</svg>
