<svg width="262" height="73" viewBox="0 0 262 73" fill="none" xmlns="http://www.w3.org/2000/svg">
<g clip-path="url(#clip0_4_1109)">
<path d="M1.29265 56.9776C13.849 36.7221 76.1896 12.4776 119.722 10.0141C166.845 7.43999 193.385 13.7354 246.784 40.478C246.165 37.1146 245.591 34.5021 245.297 31.8238C244.922 28.9743 244.643 26.0475 244.822 23.1491C244.878 22.2382 246.705 20.9379 247.814 20.8402C248.826 20.8196 250.687 21.9322 250.992 22.9485C253.797 31.1022 256.327 39.2389 258.755 47.5356C259.599 50.2479 258.377 52.1674 255.126 52.7147C243.06 54.6291 230.984 56.7091 218.836 58.4522C215.962 58.8564 212.89 58.0016 209.055 57.5983C212.512 50.746 219.052 51.9815 223.84 50.3654C228.907 48.6835 234.385 47.7752 240.82 46.2609C226.195 36.0466 211.172 29.2991 195.105 24.5653C136.244 7.37755 80.7106 15.1677 28.1251 42.1765C21.1958 45.7384 14.8664 50.0025 8.1964 53.8298C6.39028 54.7988 4.31971 55.5853 1.29265 56.9776Z" fill="#E46F62"/>
</g>
<defs>
<clipPath id="clip0_4_1109">
<rect width="56.4198" height="257.766" fill="white" transform="translate(261.677 16.6261) rotate(93.5366)"/>
</clipPath>
</defs>
</svg>
